HIERARCHY
ROOT Root
{
  OFFSET 0.0 0.0 0.0
  CHANNELS 6 Xposition Yposition Zposition Zrotation Yrotation Xrotation
  JOINT Hips
  {
    OFFSET 0.0 100.0 0.0
    CHANNELS 6 Xposition Yposition Zposition Zrotation Yrotation Xrotation
    JOINT Spine1
    {
      OFFSET 5.003913 -0.037094 -0.013727
      CHANNELS 3 Zrotation Yrotation Xrotation
      JOINT Spine2
      {
        OFFSET 7.125363 -1e-06 0.0
        CHANNELS 3 Zrotation Yrotation Xrotation
        JOINT Chest
        {
          OFFSET 7.594027 1e-06 0.0
          CHANNELS 3 Zrotation Yrotation Xrotation
          JOINT Neck1
          {
            OFFSET 26.313086 -0.460272 -0.181672
            CHANNELS 3 Zrotation Yrotation Xrotation
            JOINT Neck2
            {
              OFFSET 8.045911 0.0 0.0
              CHANNELS 3 Zrotation Yrotation Xrotation
              JOINT Head
              {
                OFFSET 6.432774 0.0 0.0
                CHANNELS 3 Zrotation Yrotation Xrotation
                JOINT HeadEnd
                {
                  OFFSET 16.169773 0.06451 0.00362
                  CHANNELS 3 Zrotation Yrotation Xrotation
                }
                JOINT Jaw
                {
                  OFFSET 0.108741 3.12938 0.002639
                  CHANNELS 3 Zrotation Yrotation Xrotation
                }
                JOINT LeftEye
                {
                  OFFSET 4.45173 8.166359 3.206392
                  CHANNELS 3 Zrotation Yrotation Xrotation
                }
                JOINT RightEye
                {
                  OFFSET 4.436895 8.135758 -3.222429
                  CHANNELS 3 Zrotation Yrotation Xrotation
                }
              }
            }
          }
          JOINT LeftShoulder
          {
            OFFSET 23.218927 5.195579 1.621656
            CHANNELS 3 Zrotation Yrotation Xrotation
            JOINT LeftArm
            {
              OFFSET 15.902118 2e-06 -2e-06
              CHANNELS 3 Zrotation Yrotation Xrotation
              JOINT LeftForeArm
              {
                OFFSET 28.739307 0.0 -1e-06
                CHANNELS 3 Zrotation Yrotation Xrotation
                JOINT LeftHand
                {
                  OFFSET 27.093981 -4e-06 0.0
                  CHANNELS 3 Zrotation Yrotation Xrotation
                  JOINT LeftHandThumb1
                  {
                    OFFSET 2.276781 3.380274 0.83384
                    CHANNELS 3 Zrotation Yrotation Xrotation
                    JOINT LeftHandThumb2
                    {
                      OFFSET 4.705309 -1e-06 -1e-06
                      CHANNELS 3 Zrotation Yrotation Xrotation
                      JOINT LeftHandThumb3
                      {
                        OFFSET 2.798515 0.0 3e-06
                        CHANNELS 3 Zrotation Yrotation Xrotation
                        JOINT LeftHandThumbEnd
                        {
                          OFFSET 3.180793 4e-06 -4e-06
                          CHANNELS 3 Zrotation Yrotation Xrotation
                        }
                      }
                    }
                  }
                  JOINT LeftHandIndex1
                  {
                    OFFSET 3.247786 2.352677 0.137192
                    CHANNELS 3 Zrotation Yrotation Xrotation
                    JOINT LeftHandIndex2
                    {
                      OFFSET 6.367095 1e-06 0.0
                      CHANNELS 3 Zrotation Yrotation Xrotation
                      JOINT LeftHandIndex3
                      {
                        OFFSET 3.662364 0.0 0.0
                        CHANNELS 3 Zrotation Yrotation Xrotation
                        JOINT LeftHandIndex4
                        {
                          OFFSET 2.329242 4e-06 -4e-06
                          CHANNELS 3 Zrotation Yrotation Xrotation
                          JOINT LeftHandIndexEnd
                          {
                            OFFSET 2.767823 1e-06 0.0
                            CHANNELS 3 Zrotation Yrotation Xrotation
                          }
                        }
                      }
                    }
                  }
                  JOINT LeftHandMiddle1
                  {
                    OFFSET 3.163612 0.945023 -0.406112
                    CHANNELS 3 Zrotation Yrotation Xrotation
                    JOINT LeftHandMiddle2
                    {
                      OFFSET 6.276789 3e-06 0.0
                      CHANNELS 3 Zrotation Yrotation Xrotation
                      JOINT LeftHandMiddle3
                      {
                        OFFSET 4.35652 -1e-06 4e-06
                        CHANNELS 3 Zrotation Yrotation Xrotation
                        JOINT LeftHandMiddle4
                        {
                          OFFSET 2.996877 0.0 8e-06
                          CHANNELS 3 Zrotation Yrotation Xrotation
                          JOINT LeftHandMiddleEnd
                          {
                            OFFSET 2.323256 3e-06 -4e-06
                            CHANNELS 3 Zrotation Yrotation Xrotation
                          }
                        }
                      }
                    }
                  }
                  JOINT LeftHandRing1
                  {
                    OFFSET 2.882606 -0.309162 0.107445
                    CHANNELS 3 Zrotation Yrotation Xrotation
                    JOINT LeftHandRing2
                    {
                      OFFSET 6.033198 0.0 4e-06
                      CHANNELS 3 Zrotation Yrotation Xrotation
                      JOINT LeftHandRing3
                      {
                        OFFSET 4.350578 3e-06 0.0
                        CHANNELS 3 Zrotation Yrotation Xrotation
                        JOINT LeftHandRing4
                        {
                          OFFSET 2.651321 2e-06 -7e-06
                          CHANNELS 3 Zrotation Yrotation Xrotation
                          JOINT LeftHandRingEnd
                          {
                            OFFSET 1.937663 1e-06 -4e-06
                            CHANNELS 3 Zrotation Yrotation Xrotation
                          }
                        }
                      }
                    }
                  }
                  JOINT LeftHandPinky1
                  {
                    OFFSET 2.865315 -1.525436 0.575687
                    CHANNELS 3 Zrotation Yrotation Xrotation
                    JOINT LeftHandPinky2
                    {
                      OFFSET 5.54936 1e-06 -8e-06
                      CHANNELS 3 Zrotation Yrotation Xrotation
                      JOINT LeftHandPinky3
                      {
                        OFFSET 3.070974 0.0 -4e-06
                        CHANNELS 3 Zrotation Yrotation Xrotation
                        JOINT LeftHandPinky4
                        {
                          OFFSET 1.549672 1e-06 0.0
                          CHANNELS 3 Zrotation Yrotation Xrotation
                          JOINT LeftHandPinkyEnd
                          {
                            OFFSET 1.952123 0.0 0.0
                            CHANNELS 3 Zrotation Yrotation Xrotation
                          }
                        }
                      }
                    }
                  }
                }
              }
            }
          }
          JOINT RightShoulder
          {
            OFFSET 23.161716 5.296122 -1.380114
            CHANNELS 3 Zrotation Yrotation Xrotation
            JOINT RightArm
            {
              OFFSET -16.027195 -2e-06 1.1e-05
              CHANNELS 3 Zrotation Yrotation Xrotation
              JOINT RightForeArm
              {
                OFFSET -28.736639 4e-06 2e-06
                CHANNELS 3 Zrotation Yrotation Xrotation
                JOINT RightHand
                {
                  OFFSET -27.133619 6e-06 0.0
                  CHANNELS 3 Zrotation Yrotation Xrotation
                  JOINT RightHandThumb1
                  {
                    OFFSET -2.274328 -3.351035 -0.83067
                    CHANNELS 3 Zrotation Yrotation Xrotation
                    JOINT RightHandThumb2
                    {
                      OFFSET -4.703594 -3e-06 2e-06
                      CHANNELS 3 Zrotation Yrotation Xrotation
                      JOINT RightHandThumb3
                      {
                        OFFSET -2.794935 -4e-06 -3e-06
                        CHANNELS 3 Zrotation Yrotation Xrotation
                        JOINT RightHandThumbEnd
                        {
                          OFFSET -3.183852 4e-06 1e-06
                          CHANNELS 3 Zrotation Yrotation Xrotation
                        }
                      }
                    }
                  }
                  JOINT RightHandIndex1
                  {
                    OFFSET -3.253496 -2.33755 -0.127667
                    CHANNELS 3 Zrotation Yrotation Xrotation
                    JOINT RightHandIndex2
                    {
                      OFFSET -6.344434 0.0 0.0
                      CHANNELS 3 Zrotation Yrotation Xrotation
                      JOINT RightHandIndex3
                      {
                        OFFSET -3.654871 0.0 -8e-06
                        CHANNELS 3 Zrotation Yrotation Xrotation
                        JOINT RightHandIndex4
                        {
                          OFFSET -2.327586 -1e-06 0.0
                          CHANNELS 3 Zrotation Yrotation Xrotation
                          JOINT RightHandIndexEnd
                          {
                            OFFSET -2.770001 3e-06 8e-06
                            CHANNELS 3 Zrotation Yrotation Xrotation
                          }
                        }
                      }
                    }
                  }
                  JOINT RightHandMiddle1
                  {
                    OFFSET -3.168223 -0.944764 0.411762
                    CHANNELS 3 Zrotation Yrotation Xrotation
                    JOINT RightHandMiddle2
                    {
                      OFFSET -6.266691 -1e-06 -4e-06
                      CHANNELS 3 Zrotation Yrotation Xrotation
                      JOINT RightHandMiddle3
                      {
                        OFFSET -4.348901 0.0 0.0
                        CHANNELS 3 Zrotation Yrotation Xrotation
                        JOINT RightHandMiddle4
                        {
                          OFFSET -3.00024 2e-06 -4e-06
                          CHANNELS 3 Zrotation Yrotation Xrotation
                          JOINT RightHandMiddleEnd
                          {
                            OFFSET -2.321477 -4e-06 -4e-06
                            CHANNELS 3 Zrotation Yrotation Xrotation
                          }
                        }
                      }
                    }
                  }
                  JOINT RightHandRing1
                  {
                    OFFSET -2.885654 0.293261 -0.119232
                    CHANNELS 3 Zrotation Yrotation Xrotation
                    JOINT RightHandRing2
                    {
                      OFFSET -6.032835 -1e-06 -4e-06
                      CHANNELS 3 Zrotation Yrotation Xrotation
                      JOINT RightHandRing3
                      {
                        OFFSET -4.33881 0.0 -4e-06
                        CHANNELS 3 Zrotation Yrotation Xrotation
                        JOINT RightHandRing4
                        {
                          OFFSET -2.654903 -4e-06 -4e-06
                          CHANNELS 3 Zrotation Yrotation Xrotation
                          JOINT RightHandRingEnd
                          {
                            OFFSET -1.935122 0.0 4e-06
                            CHANNELS 3 Zrotation Yrotation Xrotation
                          }
                        }
                      }
                    }
                  }
                  JOINT RightHandPinky1
                  {
                    OFFSET -2.866241 1.503904 -0.60527
                    CHANNELS 3 Zrotation Yrotation Xrotation
                    JOINT RightHandPinky2
                    {
                      OFFSET -5.553177 -2e-06 0.0
                      CHANNELS 3 Zrotation Yrotation Xrotation
                      JOINT RightHandPinky3
                      {
                        OFFSET -3.062664 -1e-06 -4e-06
                        CHANNELS 3 Zrotation Yrotation Xrotation
                        JOINT RightHandPinky4
                        {
                          OFFSET -1.546529 2e-06 4e-06
                          CHANNELS 3 Zrotation Yrotation Xrotation
                          JOINT RightHandPinkyEnd
                          {
                            OFFSET -1.952341 0.0 -4e-06
                            CHANNELS 3 Zrotation Yrotation Xrotation
                          }
                        }
                      }
                    }
                  }
                }
              }
            }
          }
        }
      }
    }
    JOINT LeftLeg
    {
      OFFSET -8.443107 2.567604 10.043214
      CHANNELS 3 Zrotation Yrotation Xrotation
      JOINT LeftShin
      {
        OFFSET 43.229198 1e-06 -1e-06
        CHANNELS 3 Zrotation Yrotation Xrotation
        JOINT LeftFoot
        {
          OFFSET 42.298611 1e-06 1e-06
          CHANNELS 3 Zrotation Yrotation Xrotation
          JOINT LeftToeBase
          {
            OFFSET 14.165858 1e-06 0.0
            CHANNELS 3 Zrotation Yrotation Xrotation
            JOINT LeftToeEnd
            {
              OFFSET 6.7141 -0.234461 0.0
              CHANNELS 3 Zrotation Yrotation Xrotation
            }
          }
        }
      }
    }
    JOINT RightLeg
    {
      OFFSET -8.303923 2.592729 -10.047278
      CHANNELS 3 Zrotation Yrotation Xrotation
      JOINT RightShin
      {
        OFFSET -43.369682 0.0 1e-06
        CHANNELS 3 Zrotation Yrotation Xrotation
        JOINT RightFoot
        {
          OFFSET -42.260784 4e-06 2e-06
          CHANNELS 3 Zrotation Yrotation Xrotation
          JOINT RightToeBase
          {
            OFFSET -14.222245 -2e-06 -1e-06
            CHANNELS 3 Zrotation Yrotation Xrotation
            JOINT RightToeEnd
            {
              OFFSET -6.660062 0.232574 -2e-06
              CHANNELS 3 Zrotation Yrotation Xrotation
            }
          }
        }
      }
    }
  }
}
MOTION
Frames: 4
Frame Time: 0.03333333333333333
0.0 0.0 0.0 0.0 -0.0 0.0 -19.040579 97.847 401.637115 85.494293 -1.102939 89.290031 -2.17912 2.288774 -0.222863 -11.42757 -0.297525 -1.601793 16.067539 2.462259 -3.380025 6.771919 1.961533 2.466224 -2.43855 -0.755239 2.1208 -39.354538 -0.078912 3.013864 6e-06 -0.0 -0.0 0.02977 -0.015157 -0.061046 0.283788 -0.067903 -0.053624 0.326052 0.032968 -0.07266 -121.468552 -77.346405 132.516022 19.517046 -39.442139 21.54834 46.33305 -0.365331 -0.158201 1.828208 1.193203 11.282535 17.636637 -26.322731 52.411182 -19.466658 -14.395596 29.410381 0.0 -8.774822 -3e-06 16.068714 -17.956995 6.062702 -0.609778 -1.795654 -3.889326 -4.807089 -11.046811 -2.937849 3e-06 -20.976015 -1e-06 -5.019973 -25.033556 -4.03188 7e-06 -1e-06 -2e-06 -10.634536 -5.686971 -3.565586 10.573272 -17.922951 -3.113901 1e-06 -13.82121 1e-06 -0.501778 -31.181505 -4.027017 -11.256732 -59.556736 7.501144 -13.982715 -7.150199 -2.875043 13.772726 -8.401489 -3.218239 0.347728 -34.211544 0.771656 -0.963032 -17.73337 2.621019 -1e-06 1e-06 0.0 -17.346422 -20.095221 -4.201778 21.757559 -1.638374 3.866429 -0.0 -6.338825 3e-06 -1.69759 -22.591749 -6.19401 1e-06 -4e-06 -1e-06 49.158878 -75.330025 143.00267 12.77256 -36.705723 30.690691 47.34687 -0.017673 0.418584 -10.548686 5.010587 -10.896296 22.182114 -20.375898 49.933327 -16.701811 -16.74353 28.476532 -3e-06 -12.690601 -0.0 16.316183 -17.282349 2.733168 -0.105919 -1.513855 -4.27588 -5.039041 -5.612873 -2.953557 4e-06 -11.020526 -2e-06 -6.1113 -15.895334 -3.840472 -0.0 0.0 -1e-06 -10.283371 -5.680289 -4.341838 11.028294 -11.302406 -2.372633 -1.38427 -14.238581 -6.32012 -0.625441 -26.924191 -3.827601 -3.647296 -49.692135 -3.669755 -13.708526 -7.363478 -3.720936 18.141151 -14.052739 -3.242676 5e-06 -18.78727 -2e-06 -0.429713 -8.456044 2.555504 0.0 -1e-06 1e-06 -15.923538 -20.094482 -5.473581 30.41921 -7.190824 1.735928 4e-06 -8.162926 -2e-06 -1.861903 -22.861469 -6.167942 -1e-06 -1e-06 -2e-06 -178.676636 -11.168526 -6.300523 56.376705 -0.702339 0.499299 -53.594143 2.736726 -7.31371 -16.412876 1.740661 2.185994 -0.999998 0.0 0.0 -20.136848 5.285317 -4.917007 20.004061 0.183703 -0.1615 -70.276367 -6.343594 -1.132361 -6.576312 0.733886 1.653078 -1.000003 1e-06 -0.0 
0.0 0.0 0.0 0.0 -0.0 0.0 -19.824539 98.362427 405.391296 85.267891 -0.527699 89.061668 -1.782552 2.614195 -0.155496 -11.183526 -0.245187 -1.422145 16.042686 2.389874 -3.198873 7.217006 1.900408 2.308885 -2.432901 -0.680494 2.087695 -39.873936 0.080789 3.136415 6e-06 -0.0 -0.0 0.037333 -0.024161 -0.075713 0.314312 -0.079082 -0.064002 0.360759 0.025961 -0.089284 -121.572014 -76.911255 132.758377 19.932407 -38.91082 21.662292 46.801762 -0.584133 -0.164568 2.194896 1.345161 11.617186 17.636631 -26.322741 52.411205 -19.466663 -14.395597 29.410395 -1e-06 -8.774822 -1e-06 16.0121 -18.017958 6.105844 -0.609778 -1.795655 -3.889324 -4.807088 -11.046807 -2.937851 4e-06 -20.976015 0.0 -5.019973 -25.033558 -4.03188 7e-06 0.0 -1e-06 -10.634534 -5.686968 -3.565586 10.573274 -17.922951 -3.113902 3e-06 -13.821209 3e-06 -0.50178 -31.181505 -4.027012 -11.481823 -59.637756 7.608054 -13.982715 -7.150198 -2.875041 13.77273 -8.40149 -3.218239 0.347733 -34.211552 0.771657 -0.96303 -17.73337 2.621022 -1e-06 2e-06 -1e-06 -17.34642 -20.095217 -4.201783 21.757559 -1.638376 3.866431 2e-06 -6.338824 1e-06 -1.69759 -22.591749 -6.194008 1e-06 -5e-06 -4e-06 49.39632 -75.335426 142.920624 12.944934 -36.032276 30.96381 48.945339 0.028719 0.317151 -10.274909 5.673993 -11.488329 22.18211 -20.375891 49.933319 -16.701809 -16.743525 28.476528 -2e-06 -12.690598 -3e-06 16.302109 -17.23016 2.694267 -0.105921 -1.513857 -4.275881 -5.039039 -5.612868 -2.953557 4e-06 -11.020523 -3e-06 -6.111294 -15.89533 -3.840474 -0.0 0.0 1e-06 -10.283369 -5.680286 -4.341839 11.028292 -11.302404 -2.372632 -1.384269 -14.23858 -6.320122 -0.625437 -26.924187 -3.827601 -3.771072 -49.551235 -3.557918 -13.70852 -7.363472 -3.72094 18.141146 -14.05274 -3.242676 7e-06 -18.787266 -2e-06 -0.429711 -8.456043 2.555504 -0.0 -0.0 2e-06 -15.923532 -20.094481 -5.473585 30.419205 -7.190826 1.735927 3e-06 -8.162924 -1e-06 -1.8619 -22.861467 -6.167942 -2e-06 -1e-06 -2e-06 175.990646 -11.969706 -6.842373 65.490082 -0.611788 0.394929 -57.324009 -0.183352 -7.663771 -11.950546 1.689643 2.293796 -0.999999 -0.0 0.0 -16.607695 6.192153 -4.790115 19.352423 0.078141 -0.174171 -72.645088 -6.216032 -0.636292 -6.598754 0.750536 1.653658 -1.000003 0.0 0.0 
0.0 0.0 0.0 0.0 -0.0 0.0 -20.451843 98.861252 409.114319 85.501572 -0.160648 88.491089 -1.507978 2.712748 -0.016568 -11.015223 -0.235851 -1.186465 16.100798 2.11545 -2.988672 7.57851 1.738225 2.259959 -2.399006 -0.642438 2.164081 -40.340923 0.046876 3.31866 7e-06 -0.0 -0.0 0.049016 -0.040446 -0.098763 0.325653 -0.099838 -0.088641 0.355467 0.01546 -0.107891 -120.846741 -76.417793 132.160248 20.395748 -38.768269 21.336868 46.865776 -0.79236 -0.152504 2.570472 1.761037 11.724531 17.636631 -26.322727 52.411201 -19.466661 -14.395596 29.410389 -0.0 -8.774822 -2e-06 15.931086 -18.060173 6.134118 -0.609777 -1.795653 -3.88933 -4.807088 -11.046808 -2.937851 6e-06 -20.976011 -1e-06 -5.019966 -25.033552 -4.031882 6e-06 1e-06 0.0 -10.634536 -5.686969 -3.56559 10.573277 -17.922949 -3.1139 2e-06 -13.821208 2e-06 -0.501777 -31.181505 -4.027017 -11.476703 -59.562057 7.578757 -13.982718 -7.150196 -2.875041 13.772731 -8.401491 -3.218242 0.347734 -34.21154 0.771655 -0.963029 -17.733366 2.62102 -1e-06 0.0 1e-06 -17.346418 -20.095213 -4.201786 21.757559 -1.638378 3.86643 2e-06 -6.338822 1e-06 -1.697588 -22.591743 -6.194008 0.0 -4e-06 -5e-06 49.747005 -75.608437 142.625778 13.316195 -35.855724 31.000433 49.934345 0.035615 0.340902 -10.061789 6.366966 -11.395018 22.182106 -20.375898 49.933334 -16.701813 -16.743526 28.476536 -4e-06 -12.690599 1e-06 16.284611 -17.20311 2.638175 -0.105921 -1.513854 -4.275882 -5.039039 -5.612871 -2.953558 4e-06 -11.020524 -3e-06 -6.111295 -15.895332 -3.840472 -0.0 0.0 -1e-06 -10.283369 -5.680284 -4.341839 11.028293 -11.302405 -2.372635 -1.384268 -14.238579 -6.320121 -0.625438 -26.924185 -3.827601 -3.750051 -49.399643 -3.58196 -13.70852 -7.363473 -3.720939 18.141146 -14.052739 -3.242676 7e-06 -18.78727 -2e-06 -0.429712 -8.456043 2.555504 0.0 -0.0 0.0 -15.923532 -20.094477 -5.473585 30.419201 -7.190823 1.735924 3e-06 -8.162924 -0.0 -1.8619 -22.861467 -6.167942 -2e-06 -2e-06 -1e-06 170.828049 -11.93269 -7.656662 71.011116 -0.338604 0.290107 -62.297554 -2.361843 -7.333416 -11.739567 1.669805 2.26805 -0.999999 -0.0 0.0 -13.015268 6.534925 -4.27336 18.073509 0.03425 -0.173875 -74.556061 -5.787307 -0.326219 -6.488605 0.756145 1.649969 -1.000001 -0.0 0.0 
0.0 0.0 0.0 0.0 -0.0 0.0 -20.986856 99.232742 412.787109 85.888474 0.158582 87.754585 -1.251899 2.722282 0.142531 -10.880118 -0.229579 -0.91292 16.114105 1.748693 -2.791913 8.015746 1.43116 2.33946 -2.385021 -0.610652 2.287616 -40.515278 -0.092192 3.417459 7e-06 -0.0 0.0 0.059182 -0.039918 -0.097941 0.326378 -0.110559 -0.090863 0.338503 0.027102 -0.103293 -119.765236 -76.061844 131.236206 20.441887 -38.982582 20.810532 46.868584 -0.971153 -0.093076 2.764432 2.164857 11.658162 17.636633 -26.322735 52.411201 -19.466663 -14.395597 29.410395 -0.0 -8.774821 -0.0 15.822828 -18.078577 6.147341 -0.609776 -1.795652 -3.889329 -4.807091 -11.046813 -2.93785 2e-06 -20.976019 2e-06 -5.019974 -25.033562 -4.031882 6e-06 -2e-06 -1e-06 -10.634535 -5.686969 -3.565589 10.573274 -17.922951 -3.113903 0.0 -13.821212 3e-06 -0.501781 -31.181507 -4.027018 -11.388432 -59.364269 7.474113 -13.982716 -7.150198 -2.875044 13.772729 -8.401491 -3.218241 0.347731 -34.211555 0.771657 -0.96303 -17.733372 2.621019 -1e-06 2e-06 0.0 -17.346422 -20.095221 -4.201783 21.757559 -1.638375 3.866428 1e-06 -6.338825 2e-06 -1.69759 -22.591751 -6.194007 0.0 -4e-06 -3e-06 50.583553 -76.184296 141.719162 13.642837 -36.307518 31.024441 50.435997 -0.019551 0.465548 -10.071275 6.920159 -11.290456 22.182119 -20.375895 49.933323 -16.701817 -16.74353 28.476534 -2e-06 -12.690603 -1e-06 16.21295 -17.19623 2.582476 -0.10592 -1.513858 -4.275882 -5.039042 -5.61287 -2.953557 4e-06 -11.020523 -1e-06 -6.111299 -15.895332 -3.84047 -0.0 0.0 -1e-06 -10.283373 -5.680288 -4.341841 11.028296 -11.302405 -2.372632 -1.384268 -14.23858 -6.320121 -0.62544 -26.924185 -3.827599 -3.670267 -49.206047 -3.718511 -13.708529 -7.363475 -3.72094 18.141151 -14.052739 -3.242674 8e-06 -18.78727 0.0 -0.429711 -8.456045 2.555505 0.0 -1e-06 -1e-06 -15.923539 -20.094482 -5.473586 30.419214 -7.190827 1.735926 3e-06 -8.162927 1e-06 -1.861902 -22.861467 -6.167944 -1e-06 -3e-06 -1e-06 166.120316 -11.414928 -8.337351 72.49527 -0.10455 0.194237 -65.842545 -2.921706 -7.158614 -11.937265 1.669916 2.205076 -1.0 0.0 -0.0 -9.403898 6.558273 -3.70769 16.652992 0.064115 -0.160227 -76.38044 -5.324406 -0.095604 -6.313475 0.764592 1.650576 -1.000003 0.0 0.0 
